<svg xmlns="http://www.w3.org/2000/svg" width="36.447" height="36.447"><path fill="#fff" fill-opacity=".99" d="M4.51 10.198h27.545v23.783H4.51z"/><path d="M30.26 3.948h-1.098V2.75c0-1.517-1.197-2.75-2.67-2.75-1.474 0-2.67 1.233-2.67 2.75v1.197h-2.74V2.75c0-1.517-1.197-2.75-2.67-2.75-1.473 0-2.67 1.233-2.67 2.75v1.197h-2.74V2.75c0-1.517-1.197-2.75-2.67-2.75-1.473 0-2.67 1.233-2.67 2.75v1.197H6.26a4.255 4.255 0 00-4.25 4.25v24a4.255 4.255 0 004.25 4.25h24a4.255 4.255 0 004.25-4.25v-24a4.255 4.255 0 00-4.25-4.249zM25.322 2.75c0-.689.525-1.25 1.17-1.25.646 0 1.17.561 1.17 1.25v4.896c0 .689-.524 1.25-1.17 1.25-.645 0-1.17-.561-1.17-1.25zm-8.08 0c0-.689.525-1.25 1.17-1.25.645 0 1.17.561 1.17 1.25v4.896c0 .689-.525 1.25-1.17 1.25-.645 0-1.17-.561-1.17-1.25zm-8.08 0c0-.689.524-1.25 1.17-1.25.644 0 1.17.561 1.17 1.25v4.896c0 .689-.526 1.25-1.17 1.25-.646 0-1.17-.561-1.17-1.25zM32.01 32.198c0 .965-.785 1.75-1.75 1.75h-24c-.965 0-1.75-.785-1.75-1.75v-22h27.5z"/><g><path d="M24.709 19.892h4.596v3.264h-4.596zM24.709 24.33h4.596v3.263h-4.596zM24.709 15.454h4.596v3.263h-4.596zM18.878 24.33h4.596v3.263h-4.596zM13.047 24.33h4.596v3.263h-4.596zM7.216 24.33h4.596v3.263H7.216z"/></g><g><g fill-opacity=".99"><path fill="#fff" d="M15.773 15.454h7.701v7.701h-7.701z"/><path fill="#ff2a2a" d="M7.216 15.454h7.701v7.701H7.216z"/></g><text style="line-height:1.25;-inkscape-font-specification:'Alien Skyline'" x="7.216" y="23.155" font-size="13.691" font-family="Alien Skyline" letter-spacing="0" word-spacing="0" stroke-width="1.711"><tspan x="7.216" y="23.155">md</tspan></text></g></svg>