<?xml version="1.0" encoding="UTF-8" standalone="no"?>
<svg
   xmlns:dc="http://purl.org/dc/elements/1.1/"
   xmlns:cc="http://creativecommons.org/ns#"
   xmlns:rdf="http://www.w3.org/1999/02/22-rdf-syntax-ns#"
   xmlns:svg="http://www.w3.org/2000/svg"
   xmlns="http://www.w3.org/2000/svg"
   xmlns:sodipodi="http://sodipodi.sourceforge.net/DTD/sodipodi-0.dtd"
   xmlns:inkscape="http://www.inkscape.org/namespaces/inkscape"
   version="1.1"
   id="Capa_1"
   x="0px"
   y="0px"
   width="36.447px"
   height="36.447px"
   viewBox="0 0 36.447 36.447"
   style="enable-background:new 0 0 36.447 36.447;"
   xml:space="preserve"
   sodipodi:docname="md_calender.svg"><metadata
   id="metadata57"><rdf:RDF><cc:Work
       rdf:about=""><dc:format>image/svg+xml</dc:format><dc:type
         rdf:resource="http://purl.org/dc/dcmitype/StillImage" /><dc:title></dc:title></cc:Work></rdf:RDF></metadata><defs
   id="defs55" /><sodipodi:namedview
   pagecolor="#808080"
   bordercolor="#666666"
   borderopacity="1"
   objecttolerance="10"
   gridtolerance="10"
   guidetolerance="10"
   inkscape:pageopacity="0"
   inkscape:pageshadow="2"
   inkscape:window-width="3840"
   inkscape:window-height="2066"
   id="namedview53"
   showgrid="false"
   inkscape:zoom="32"
   inkscape:cx="15.61019"
   inkscape:cy="16.750264"
   inkscape:window-x="-11"
   inkscape:window-y="49"
   inkscape:window-maximized="1"
   inkscape:current-layer="layer6"
   inkscape:snap-smooth-nodes="true"
   inkscape:snap-bbox="true"
   inkscape:bbox-paths="true"
   inkscape:bbox-nodes="true"
   inkscape:pagecheckerboard="true"
   inkscape:document-rotation="0"
   inkscape:snap-bbox-edge-midpoints="false"
   inkscape:snap-global="true"
   inkscape:snap-grids="false"
   inkscape:snap-to-guides="true"
   inkscape:snap-nodes="true"
   inkscape:object-paths="true"
   inkscape:snap-intersection-paths="true"
   inkscape:snap-others="true"
   inkscape:snap-object-midpoints="true"
   inkscape:snap-page="false"
   inkscape:snap-bbox-midpoints="true"
   inkscape:object-nodes="true"
   inkscape:snap-midpoints="true"
   inkscape:snap-path-clip="true"
   inkscape:snap-path-mask="true"
   inkscape:snap-tangential="true"
   inkscape:snap-perpendicular="true"
   inkscape:snap-center="true"
   inkscape:snap-text-baseline="true" />
















<g
   inkscape:groupmode="layer"
   id="layer1"
   inkscape:label="frame"
   style="display:inline"><g
     id="g22">
</g><g
     id="g24">
</g><g
     id="g26">
</g><g
     id="g28">
</g><g
     id="g30">
</g><g
     id="g32">
</g><g
     id="g34">
</g><g
     id="g36">
</g><g
     id="g38">
</g><g
     id="g40">
</g><g
     id="g42">
</g><g
     id="g44">
</g><g
     id="g46">
</g><g
     id="g48">
</g><g
     id="g50">
</g><g
     inkscape:groupmode="layer"
     id="layer10"
     inkscape:label="frame_backColor"><rect
       style="opacity:1;fill:#ffffff;fill-opacity:0.990338;stroke-width:0.996162"
       id="rect337"
       width="27.545383"
       height="23.783499"
       x="4.5101576"
       y="10.198" /></g><g
     id="g20"
     transform="translate(0.03615774)"
     style="display:inline">
	<g
   id="g18">
		<path
   d="M 30.224,3.948 H 29.126 V 2.75 C 29.126,1.233 27.929,0 26.456,0 c -1.474,0 -2.67,1.233 -2.67,2.75 v 1.197 h -2.74 V 2.75 C 21.046,1.233 19.849,0 18.376,0 c -1.473,0 -2.67,1.233 -2.67,2.75 v 1.197 h -2.74 V 2.75 C 12.966,1.233 11.769,0 10.296,0 8.823,0 7.626,1.233 7.626,2.75 V 3.947 H 6.224 c -2.343,0 -4.25,1.907 -4.25,4.25 v 24 c 0,2.343 1.907,4.25 4.25,4.25 h 24 c 2.344,0 4.25,-1.907 4.25,-4.25 v -24 c 0,-2.342 -1.907,-4.249 -4.25,-4.249 z M 25.286,2.75 c 0,-0.689 0.525,-1.25 1.17,-1.25 0.646,0 1.17,0.561 1.17,1.25 v 4.896 c 0,0.689 -0.524,1.25 -1.17,1.25 -0.645,0 -1.17,-0.561 -1.17,-1.25 z m -8.08,0 c 0,-0.689 0.525,-1.25 1.17,-1.25 0.645,0 1.17,0.561 1.17,1.25 v 4.896 c 0,0.689 -0.525,1.25 -1.17,1.25 -0.645,0 -1.17,-0.561 -1.17,-1.25 z m -8.081,0 c 0,-0.689 0.525,-1.25 1.17,-1.25 0.645,0 1.17,0.561 1.17,1.25 v 4.896 c 0,0.689 -0.525,1.25 -1.17,1.25 -0.645,0 -1.17,-0.561 -1.17,-1.25 z m 22.849,29.448 c 0,0.965 -0.785,1.75 -1.75,1.75 h -24 c -0.965,0 -1.75,-0.785 -1.75,-1.75 v -22 h 27.5 z"
   id="path2" />
		
		
		
		
		
		
		<g
   id="g141"
   transform="matrix(1,0,0,0.8394278,-1.3196777e-7,2.2567105)" />
	</g>
</g></g><g
   inkscape:groupmode="layer"
   id="layer5"
   inkscape:label="cell"
   style="display:inline"
   transform="translate(0.03615774)"><g
     inkscape:groupmode="layer"
     id="layer6"
     inkscape:label="cell_hide"
     style="display:none"><rect
       x="7.6709957"
       y="15.456025"
       width="4.5960002"
       height="3.4299021"
       id="rect195"
       style="display:inline;fill:#c8ab37;stroke-width:0.916203"
       transform="matrix(1,0,0,0.95139043,-0.49140236,0.74953233)" /><rect
       x="19.33287"
       y="20.120697"
       width="4.5960002"
       height="3.4299021"
       id="rect279"
       style="display:inline;stroke-width:0.916203"
       transform="matrix(1,0,0,0.95139043,-0.49140236,0.74953233)" /><rect
       x="19.33287"
       y="15.456025"
       width="4.5960002"
       height="3.4299021"
       id="rect283"
       style="display:inline;stroke-width:0.916203"
       transform="matrix(1,0,0,0.95139043,-0.49140236,0.74953233)" /><rect
       x="13.501933"
       y="20.120697"
       width="4.5960002"
       height="3.4299021"
       id="rect285"
       style="display:inline;stroke-width:0.916203"
       transform="matrix(1,0,0,0.95139043,-0.49140236,0.74953233)" /><rect
       x="13.501933"
       y="15.456025"
       width="4.5960002"
       height="3.4299021"
       id="rect289"
       style="display:inline;stroke-width:0.916203"
       transform="matrix(1,0,0,0.95139043,-0.49140236,0.74953233)" /><rect
       x="7.6709957"
       y="20.120697"
       width="4.5960002"
       height="3.4299021"
       id="rect291"
       style="display:inline;stroke-width:0.916203"
       transform="matrix(1,0,0,0.95139043,-0.49140236,0.74953233)" /></g><g
     id="g309"
     transform="matrix(1,0,0,0.95139043,-0.49140236,0.74953233)"><rect
       x="25.163809"
       y="20.120697"
       width="4.5960002"
       height="3.4299021"
       id="rect8"
       style="stroke-width:0.916203" /><rect
       x="25.163809"
       y="24.785366"
       width="4.5960002"
       height="3.4299021"
       id="rect16"
       style="stroke-width:0.916203" /><rect
       x="25.163809"
       y="15.456025"
       width="4.5960002"
       height="3.4299021"
       id="rect171"
       style="stroke-width:0.916203" /><rect
       x="19.33287"
       y="24.785366"
       width="4.5960002"
       height="3.4299021"
       id="rect281"
       style="stroke-width:0.916203" /><rect
       x="13.501933"
       y="24.785366"
       width="4.5960002"
       height="3.4299021"
       id="rect287"
       style="stroke-width:0.916203" /><rect
       x="7.6709957"
       y="24.785366"
       width="4.5960002"
       height="3.4299021"
       id="rect293"
       style="stroke-width:0.916203" /></g></g><g
   inkscape:groupmode="layer"
   id="layer2"
   inkscape:label="text"
   style="display:inline"><g
     inkscape:groupmode="layer"
     id="layer9"
     inkscape:label="text_back"
     style="display:inline"><rect
       style="opacity:1;fill:#ffffff;fill-opacity:0.990338;stroke-width:1.82697"
       id="rect330"
       width="7.7010746"
       height="7.7010746"
       x="15.7725"
       y="15.454271" /><rect
       style="opacity:1;fill:#ff2a2a;fill-opacity:0.990338;stroke-width:1.38377"
       id="rect326"
       width="7.7010746"
       height="7.7010746"
       x="7.2157512"
       y="15.454271" /></g><text
     xml:space="preserve"
     style="font-size:13.6908px;line-height:1.25;font-family:'Alien Skyline';-inkscape-font-specification:'Alien Skyline';letter-spacing:0px;word-spacing:0px;fill:#000000;stroke-width:1.71136"
     x="7.2157512"
     y="23.155346"
     id="text80"><tspan
       sodipodi:role="line"
       id="tspan78"
       x="7.2157512"
       y="23.155346"
       style="fill:#000000;stroke-width:1.71136">md</tspan></text></g></svg>
